<?xml version="1.0" encoding="UTF-8"?>
<!DOCTYPE svg PUBLIC "-//W3C//DTD SVG 1.1//EN" "http://www.w3.org/Graphics/SVG/1.1/DTD/svg11.dtd">
<svg xmlns="http://www.w3.org/2000/svg" version="1.1" width="300px" height="300px" style="shape-rendering:geometricPrecision; text-rendering:geometricPrecision; image-rendering:optimizeQuality; fill-rule:evenodd; clip-rule:evenodd" xmlns:xlink="http://www.w3.org/1999/xlink">
<g><path style="opacity:0.999" fill="#1f1c19" d="M 231.5,34.5 C 229.856,34.7135 228.356,34.3802 227,33.5C 226.536,34.0944 226.369,34.7611 226.5,35.5C 184.656,9.53591 140.656,5.36924 94.5,23C 83.0904,28.0245 72.7571,34.5245 63.5,42.5C 21.212,77.7931 4.71198,122.793 14,177.5C 17.4603,193.554 23.4603,208.554 32,222.5C 32.2321,221.263 32.7321,220.263 33.5,219.5C 33.2322,221.099 33.5655,222.432 34.5,223.5C 34.1961,224.15 33.8627,224.817 33.5,225.5C 35.5803,227.993 37.4136,230.659 39,233.5C 40.6155,234.801 42.1155,234.801 43.5,233.5C 44.625,234.348 44.625,235.348 43.5,236.5C 42.1667,237.167 42.1667,237.833 43.5,238.5C 47.2269,243.23 51.5603,247.23 56.5,250.5C 56.9175,251.222 57.5842,251.722 58.5,252C 57.1416,252.934 55.8083,253.768 54.5,254.5C 13.3352,214.141 -0.164759,165.808 14,109.5C 34.1237,52.0485 74.2903,18.5485 134.5,9C 170.168,5.49826 202.501,13.9983 231.5,34.5 Z"/></g>
<g><path style="opacity:1" fill="#d5c682" d="M 226.5,35.5 C 230.146,37.8171 233.48,40.4838 236.5,43.5C 233.37,41.9416 230.037,40.9416 226.5,40.5C 226.762,39.0222 226.429,37.6888 225.5,36.5C 222.26,35.3734 219.26,34.04 216.5,32.5C 216.992,36.2896 216.159,36.9563 214,34.5C 214.128,32.555 213.962,30.7216 213.5,29C 209.152,29.9003 204.819,30.4003 200.5,30.5C 209.086,35.9093 215.252,43.2426 219,52.5C 219.57,46.6411 220.737,46.3077 222.5,51.5C 221.263,52.2807 220.263,53.2807 219.5,54.5C 221.094,57.9913 221.761,61.658 221.5,65.5C 216.84,43.0048 203.173,29.1714 180.5,24C 171.912,22.3432 163.245,21.3432 154.5,21C 153.672,20.0853 152.672,19.4186 151.5,19C 146.833,18.3333 142.167,18.3333 137.5,19C 136.748,19.6708 136.414,20.5041 136.5,21.5C 122.041,21.7897 108.375,25.1231 95.5,31.5C 92.9906,32.9213 90.6572,34.5879 88.5,36.5C 88.4587,32.1488 86.4587,30.8155 82.5,32.5C 81.7568,33.9079 80.9234,35.2412 80,36.5C 78.2739,35.4238 76.4406,35.2571 74.5,36C 72.0337,38.264 69.3671,40.264 66.5,42C 65.552,42.4828 64.552,42.6495 63.5,42.5C 72.7571,34.5245 83.0904,28.0245 94.5,23C 140.656,5.36924 184.656,9.53591 226.5,35.5 Z"/></g>
<g><path style="opacity:1" fill="#020302" d="M 136.5,21.5 C 136.5,21.8333 136.5,22.1667 136.5,22.5C 136.5,48.8333 136.5,75.1667 136.5,101.5C 128.967,98.7115 121.3,96.2115 113.5,94C 99.403,91.8106 87.2363,95.6439 77,105.5C 73.8919,74.1098 84.7253,48.9431 109.5,30C 105.078,30.975 100.745,32.475 96.5,34.5C 95.596,33.791 95.2627,32.791 95.5,31.5C 108.375,25.1231 122.041,21.7897 136.5,21.5 Z"/></g>
<g><path style="opacity:1" fill="#dac87f" d="M 236.5,43.5 C 263.105,65.3589 279.438,93.3589 285.5,127.5C 286.294,138.815 286.627,150.148 286.5,161.5C 285.067,180.239 280.067,197.905 271.5,214.5C 269.844,217.139 268.178,219.805 266.5,222.5C 253.374,189.29 240.541,155.956 228,122.5C 225.914,103.48 223.747,84.4804 221.5,65.5C 221.761,61.658 221.094,57.9913 219.5,54.5C 220.263,53.2807 221.263,52.2807 222.5,51.5C 220.737,46.3077 219.57,46.6411 219,52.5C 215.252,43.2426 209.086,35.9093 200.5,30.5C 204.819,30.4003 209.152,29.9003 213.5,29C 213.962,30.7216 214.128,32.555 214,34.5C 216.159,36.9563 216.992,36.2896 216.5,32.5C 219.26,34.04 222.26,35.3734 225.5,36.5C 226.429,37.6888 226.762,39.0222 226.5,40.5C 230.037,40.9416 233.37,41.9416 236.5,43.5 Z"/></g>
<g><path style="opacity:1" fill="#dac87f" d="M 88.5,36.5 C 75.5846,54.05 67.4179,73.7167 64,95.5C 63.1116,108.822 62.4449,122.155 62,135.5C 51.9842,163.382 42.4842,191.382 33.5,219.5C 32.7321,220.263 32.2321,221.263 32,222.5C 23.4603,208.554 17.4603,193.554 14,177.5C 4.71198,122.793 21.212,77.7931 63.5,42.5C 64.552,42.6495 65.552,42.4828 66.5,42C 69.3671,40.264 72.0337,38.264 74.5,36C 76.4406,35.2571 78.2739,35.4238 80,36.5C 80.9234,35.2412 81.7568,33.9079 82.5,32.5C 86.4587,30.8155 88.4587,32.1488 88.5,36.5 Z"/></g>
<g><path style="opacity:1" fill="#404241" d="M 136.5,22.5 C 136.5,22.1667 136.5,21.8333 136.5,21.5C 138.478,32.4507 139.144,43.784 138.5,55.5C 137.833,44.5 137.167,33.5 136.5,22.5 Z"/></g>
<g><path style="opacity:1" fill="#7e8381" d="M 136.5,22.5 C 137.167,33.5 137.833,44.5 138.5,55.5C 138.167,76.1774 138.5,96.8441 139.5,117.5C 141.618,118.946 143.951,119.613 146.5,119.5C 146.335,116.15 146.502,112.817 147,109.5C 148.314,108.687 149.481,107.687 150.5,106.5C 151.764,110.18 151.764,113.847 150.5,117.5C 151.425,118.562 152.425,118.562 153.5,117.5C 153.842,118.338 154.508,118.672 155.5,118.5C 152.991,119.921 150.657,121.588 148.5,123.5C 145.864,122.176 143.198,122.176 140.5,123.5C 139.522,123.023 138.689,122.357 138,121.5C 137.601,121.728 137.435,122.062 137.5,122.5C 136.033,119.71 133.7,118.044 130.5,117.5C 120.958,113.885 110.958,112.219 100.5,112.5C 87.7797,112.445 77.9463,117.778 71,128.5C 60.8464,157.48 50.6797,186.48 40.5,215.5C 40.8333,215.833 41.1667,216.167 41.5,216.5C 43.9289,214.347 46.5956,213.681 49.5,214.5C 45.5658,220.019 43.0658,226.019 42,232.5C 42.3826,233.056 42.8826,233.389 43.5,233.5C 42.1155,234.801 40.6155,234.801 39,233.5C 37.4136,230.659 35.5803,227.993 33.5,225.5C 33.8627,224.817 34.1961,224.15 34.5,223.5C 44.6349,194.305 54.4683,164.972 64,135.5C 63.1551,104.717 69.8218,75.7168 84,48.5C 87.3193,43.0175 91.486,38.3508 96.5,34.5C 100.745,32.475 105.078,30.975 109.5,30C 84.7253,48.9431 73.8919,74.1098 77,105.5C 87.2363,95.6439 99.403,91.8106 113.5,94C 121.3,96.2115 128.967,98.7115 136.5,101.5C 136.5,75.1667 136.5,48.8333 136.5,22.5 Z"/></g>
<g><path style="opacity:1" fill="#070808" d="M 108.5,95.5 C 118.029,97.9334 127.362,100.933 136.5,104.5C 136.823,108.226 136.489,111.893 135.5,115.5C 122.346,110.263 108.68,108.096 94.5,109C 99.062,104.269 103.729,99.7691 108.5,95.5 Z"/></g>
<g><path style="opacity:1" fill="#040404" d="M 221.5,65.5 C 223.747,84.4804 225.914,103.48 228,122.5C 240.541,155.956 253.374,189.29 266.5,222.5C 268.178,219.805 269.844,217.139 271.5,214.5C 272.345,215.671 273.011,217.005 273.5,218.5C 251.171,257.946 217.504,281.78 172.5,290C 127.504,296.386 88.171,284.552 54.5,254.5C 55.8083,253.768 57.1416,252.934 58.5,252C 57.5842,251.722 56.9175,251.222 56.5,250.5C 63.0694,248.947 69.4027,246.947 75.5,244.5C 77.099,244.768 78.4324,244.434 79.5,243.5C 81.5,243.167 83.5,242.833 85.5,242.5C 86.1667,240.167 86.8333,237.833 87.5,235.5C 79.4903,235.644 71.4903,235.977 63.5,236.5C 56.8333,236.5 50.1667,236.5 43.5,236.5C 44.625,235.348 44.625,234.348 43.5,233.5C 42.8826,233.389 42.3826,233.056 42,232.5C 43.0658,226.019 45.5658,220.019 49.5,214.5C 46.5956,213.681 43.9289,214.347 41.5,216.5C 41.1667,216.167 40.8333,215.833 40.5,215.5C 50.6797,186.48 60.8464,157.48 71,128.5C 77.9463,117.778 87.7797,112.445 100.5,112.5C 92.7637,116.648 87.9304,122.982 86,131.5C 92.0102,118.277 102.177,112.777 116.5,115C 121.739,116.413 126.739,118.413 131.5,121C 133.761,123.772 135.261,126.938 136,130.5C 136.886,124.946 135.053,120.613 130.5,117.5C 133.7,118.044 136.033,119.71 137.5,122.5C 139.022,126.814 139.689,131.314 139.5,136C 139.086,141.517 138.92,147.017 139,152.5C 140.156,148.877 141.156,145.211 142,141.5C 145.249,139.883 147.916,140.549 150,143.5C 150.203,150.903 152.87,157.236 158,162.5C 158.167,162 158.333,161.5 158.5,161C 156.983,158.157 155.483,155.323 154,152.5C 154.733,146.812 152.899,142.312 148.5,139C 146.19,138.503 143.857,138.337 141.5,138.5C 141.5,137.5 141.5,136.5 141.5,135.5C 144.685,135.02 147.519,135.686 150,137.5C 150.684,136.216 150.517,135.049 149.5,134C 146.854,133.503 144.187,133.336 141.5,133.5C 141.5,132.167 141.5,130.833 141.5,129.5C 144.602,129.154 147.435,129.821 150,131.5C 150.507,130.004 150.007,128.837 148.5,128C 146.19,127.503 143.857,127.337 141.5,127.5C 141.5,126.5 141.5,125.5 141.5,124.5C 144.482,124.104 147.149,124.771 149.5,126.5C 150.665,125.14 150.332,124.14 148.5,123.5C 150.657,121.588 152.991,119.921 155.5,118.5C 164.089,112.372 173.756,109.372 184.5,109.5C 199.804,109.401 211.638,115.735 220,128.5C 232.55,155.599 244.55,182.932 256,210.5C 246.158,180.983 235.491,151.65 224,122.5C 219.054,112.222 212.554,103.056 204.5,95C 203.365,94.2506 202.365,94.4173 201.5,95.5C 205.461,100.626 208.794,106.126 211.5,112C 207.609,110.741 203.609,109.408 199.5,108C 185.343,103.786 171.676,104.952 158.5,111.5C 157.167,107.167 157.167,102.833 158.5,98.5C 170.66,91.8911 183.66,88.5578 197.5,88.5C 201.597,80.7954 202.43,72.7954 200,64.5C 198.783,69.761 197.783,75.0943 197,80.5C 196.727,82.3289 195.893,83.8289 194.5,85C 181.527,84.5759 169.36,87.4093 158,93.5C 157.409,71.4977 156.743,49.4977 156,27.5C 155.482,24.9774 154.148,22.9774 152,21.5C 152.044,53.5212 152.544,85.5212 153.5,117.5C 152.425,118.562 151.425,118.562 150.5,117.5C 151.764,113.847 151.764,110.18 150.5,106.5C 149.481,107.687 148.314,108.687 147,109.5C 146.502,112.817 146.335,116.15 146.5,119.5C 143.951,119.613 141.618,118.946 139.5,117.5C 138.5,96.8441 138.167,76.1774 138.5,55.5C 139.144,43.784 138.478,32.4507 136.5,21.5C 136.414,20.5041 136.748,19.6708 137.5,19C 142.167,18.3333 146.833,18.3333 151.5,19C 152.672,19.4186 153.672,20.0853 154.5,21C 163.245,21.3432 171.912,22.3432 180.5,24C 203.173,29.1714 216.84,43.0048 221.5,65.5 Z"/></g>
<g><path style="opacity:1" fill="#b8b8b4" d="M 179.5,29.5 C 201.159,31.9877 213.659,44.321 217,66.5C 218.775,79.7968 219.775,93.1302 220,106.5C 217.043,91.2315 214.377,75.8981 212,60.5C 207.542,43.543 196.709,33.2097 179.5,29.5 Z"/></g>
<g><path style="opacity:1" fill="#2d2d2b" d="M 100.5,112.5 C 110.958,112.219 120.958,113.885 130.5,117.5C 135.053,120.613 136.886,124.946 136,130.5C 135.261,126.938 133.761,123.772 131.5,121C 126.739,118.413 121.739,116.413 116.5,115C 102.177,112.777 92.0102,118.277 86,131.5C 87.9304,122.982 92.7637,116.648 100.5,112.5 Z"/></g>
<g><path style="opacity:0.995" fill="#181614" d="M 231.5,34.5 C 277.088,68.6944 296.588,114.361 290,171.5C 287.352,188.283 281.852,203.95 273.5,218.5C 273.011,217.005 272.345,215.671 271.5,214.5C 280.067,197.905 285.067,180.239 286.5,161.5C 287.166,157.18 287.499,152.68 287.5,148C 287.661,140.936 286.994,134.103 285.5,127.5C 279.438,93.3589 263.105,65.3589 236.5,43.5C 233.48,40.4838 230.146,37.8171 226.5,35.5C 226.369,34.7611 226.536,34.0944 227,33.5C 228.356,34.3802 229.856,34.7135 231.5,34.5 Z"/></g>
<g><path style="opacity:1" fill="#bcbcb9" d="M 155.5,118.5 C 154.508,118.672 153.842,118.338 153.5,117.5C 152.544,85.5212 152.044,53.5212 152,21.5C 154.148,22.9774 155.482,24.9774 156,27.5C 156.743,49.4977 157.409,71.4977 158,93.5C 169.36,87.4093 181.527,84.5759 194.5,85C 195.893,83.8289 196.727,82.3289 197,80.5C 197.783,75.0943 198.783,69.761 200,64.5C 202.43,72.7954 201.597,80.7954 197.5,88.5C 183.66,88.5578 170.66,91.8911 158.5,98.5C 157.167,102.833 157.167,107.167 158.5,111.5C 171.676,104.952 185.343,103.786 199.5,108C 203.609,109.408 207.609,110.741 211.5,112C 208.794,106.126 205.461,100.626 201.5,95.5C 202.365,94.4173 203.365,94.2506 204.5,95C 212.554,103.056 219.054,112.222 224,122.5C 235.491,151.65 246.158,180.983 256,210.5C 244.55,182.932 232.55,155.599 220,128.5C 211.638,115.735 199.804,109.401 184.5,109.5C 173.756,109.372 164.089,112.372 155.5,118.5 Z"/></g>
<g><path style="opacity:1" fill="#2f2e29" d="M 116.5,125.5 C 131.66,123.992 138.327,130.659 136.5,145.5C 126.16,146.709 115.827,146.709 105.5,145.5C 104.013,135.795 107.679,129.128 116.5,125.5 Z"/></g>
<g><path style="opacity:1" fill="#414342" d="M 176.5,111.5 C 189.127,108.979 198.96,112.979 206,123.5C 210.763,136.221 210.096,136.554 204,124.5C 193.706,112.008 182.706,111.342 171,122.5C 170.517,123.448 170.351,124.448 170.5,125.5C 183.649,125.65 189.983,132.317 189.5,145.5C 178.493,146.776 167.493,146.776 156.5,145.5C 155.795,136.871 156.962,128.538 160,120.5C 165.066,116.553 170.566,113.553 176.5,111.5 Z"/></g>
<g><path style="opacity:1" fill="#b7b6b5" d="M 148.5,123.5 C 150.332,124.14 150.665,125.14 149.5,126.5C 147.149,124.771 144.482,124.104 141.5,124.5C 141.5,125.5 141.5,126.5 141.5,127.5C 143.857,127.337 146.19,127.503 148.5,128C 150.007,128.837 150.507,130.004 150,131.5C 147.435,129.821 144.602,129.154 141.5,129.5C 141.5,130.833 141.5,132.167 141.5,133.5C 144.187,133.336 146.854,133.503 149.5,134C 150.517,135.049 150.684,136.216 150,137.5C 147.519,135.686 144.685,135.02 141.5,135.5C 141.5,136.5 141.5,137.5 141.5,138.5C 143.857,138.337 146.19,138.503 148.5,139C 152.899,142.312 154.733,146.812 154,152.5C 155.483,155.323 156.983,158.157 158.5,161C 158.333,161.5 158.167,162 158,162.5C 152.87,157.236 150.203,150.903 150,143.5C 147.916,140.549 145.249,139.883 142,141.5C 141.156,145.211 140.156,148.877 139,152.5C 138.92,147.017 139.086,141.517 139.5,136C 139.689,131.314 139.022,126.814 137.5,122.5C 137.435,122.062 137.601,121.728 138,121.5C 138.689,122.357 139.522,123.023 140.5,123.5C 143.198,122.176 145.864,122.176 148.5,123.5 Z"/></g>
<g><path style="opacity:1" fill="#998c5c" d="M 285.5,127.5 C 286.994,134.103 287.661,140.936 287.5,148C 287.499,152.68 287.166,157.18 286.5,161.5C 286.627,150.148 286.294,138.815 285.5,127.5 Z"/></g>
<g><path style="opacity:1" fill="#414141" d="M 128.5,150.5 C 113.673,153.731 100.006,151.231 87.5,143C 100.959,147.717 114.959,149.717 129.5,149C 128.944,149.383 128.611,149.883 128.5,150.5 Z"/></g>
<g><path style="opacity:1" fill="#17140d" d="M 95.5,31.5 C 95.2627,32.791 95.596,33.791 96.5,34.5C 91.486,38.3508 87.3193,43.0175 84,48.5C 69.8218,75.7168 63.1551,104.717 64,135.5C 54.4683,164.972 44.6349,194.305 34.5,223.5C 33.5655,222.432 33.2322,221.099 33.5,219.5C 42.4842,191.382 51.9842,163.382 62,135.5C 62.4449,122.155 63.1116,108.822 64,95.5C 67.4179,73.7167 75.5846,54.05 88.5,36.5C 90.6572,34.5879 92.9906,32.9213 95.5,31.5 Z"/></g>
<g><path style="opacity:1" fill="#a7a6a6" d="M 207.5,146.5 C 208.525,146.897 208.692,147.563 208,148.5C 202.558,154.221 195.892,157.554 188,158.5C 151.191,149.498 151.357,148.498 188.5,155.5C 196.297,155.357 202.63,152.357 207.5,146.5 Z"/></g>
<g><path style="opacity:1" fill="#424342" d="M 128.5,150.5 C 129.847,149.972 131.181,149.805 132.5,150C 130.016,152.744 127.016,154.744 123.5,156C 114.833,156.667 106.167,156.667 97.5,156C 97.8333,155.667 98.1667,155.333 98.5,155C 97.3279,154.581 96.3279,153.915 95.5,153C 104.411,154.987 113.411,154.987 122.5,153C 124.852,152.76 126.852,151.927 128.5,150.5 Z"/></g>
<g><path style="opacity:1" fill="#9e9d9d" d="M 141.5,158.5 C 143.199,158.34 144.866,158.506 146.5,159C 143.721,159.561 141.054,160.394 138.5,161.5C 139.306,160.272 140.306,159.272 141.5,158.5 Z"/></g>
<g><path style="opacity:1" fill="#71716f" d="M 150.5,158.5 C 155.238,160.643 157.405,164.31 157,169.5C 155.451,165.455 153.284,161.788 150.5,158.5 Z"/></g>
<g><path style="opacity:1" fill="#c5c5c1" d="M 163.5,162.5 C 175.626,163.253 187.626,164.587 199.5,166.5C 197.274,176.402 194.274,186.069 190.5,195.5C 180.054,187.189 169.888,178.522 160,169.5C 160.066,166.7 161.233,164.367 163.5,162.5 Z"/></g>
<g><path style="opacity:1" fill="#c1c0bd" d="M 141.5,162.5 C 143.657,163.053 143.49,164.053 141,165.5C 139.613,171.864 140.779,172.698 144.5,168C 146.473,167.505 148.473,167.338 150.5,167.5C 150.215,169.288 150.548,170.955 151.5,172.5C 152.449,168.857 151.449,165.69 148.5,163C 151.117,163.26 152.95,164.76 154,167.5C 155.628,171.325 155.795,175.158 154.5,179C 149.167,179.667 143.833,179.667 138.5,179C 137.368,174.587 137.201,170.087 138,165.5C 139.145,164.364 140.312,163.364 141.5,162.5 Z"/></g>
<g><path style="opacity:1" fill="#b2b2b1" d="M 207.5,169.5 C 205.848,178.462 201.681,186.462 195,193.5C 198.852,185.467 203.019,177.467 207.5,169.5 Z"/></g>
<g><path style="opacity:1" fill="#4e4e50" d="M 141.5,158.5 C 140.306,159.272 139.306,160.272 138.5,161.5C 137.784,161.783 136.951,162.116 136,162.5C 134.919,166.797 133.919,171.13 133,175.5C 128.428,185.649 123.095,195.316 117,204.5C 116.346,205.696 115.846,205.696 115.5,204.5C 120.868,194.959 126.035,185.292 131,175.5C 130.913,167.077 134.247,160.41 141,155.5C 140.891,156.769 141.058,157.769 141.5,158.5 Z"/></g>
<g><path style="opacity:1" fill="#959593" d="M 207.5,180.5 C 206.918,189.107 204.418,197.441 200,205.5C 202.167,197.158 204.667,188.824 207.5,180.5 Z"/></g>
<g><path style="opacity:1" fill="#414241" d="M 104.5,211.5 C 102.504,213.333 100.171,213.833 97.5,213C 92.9924,210.247 88.6591,207.247 84.5,204C 85.3333,203.833 86.1667,203.667 87,203.5C 90.3876,204.947 93.8876,205.947 97.5,206.5C 93.6819,194.53 88.0153,183.53 80.5,173.5C 80.6667,173.167 80.8333,172.833 81,172.5C 88.649,180.458 94.8156,189.458 99.5,199.5C 100.002,200.521 100.668,200.688 101.5,200C 98.2172,189.82 94.7172,179.653 91,169.5C 88.7202,165.553 86.0535,161.887 83,158.5C 82.3333,157.833 82.3333,157.167 83,156.5C 85.872,159.037 88.372,161.87 90.5,165C 97.5692,164.821 104.569,163.821 111.5,162C 117.5,161.333 123.5,161.333 129.5,162C 129.833,162.333 130.167,162.667 130.5,163C 118.011,162.692 106.011,164.859 94.5,169.5C 97.1117,177.004 100.112,184.337 103.5,191.5C 108.157,186.675 112.657,181.675 117,176.5C 117.167,177 117.333,177.5 117.5,178C 113.392,183.779 108.892,189.279 104,194.5C 103.333,196.167 103.333,197.833 104,199.5C 110.382,192.12 116.382,184.453 122,176.5C 124.034,174.968 126.201,173.635 128.5,172.5C 128.833,172.833 129.167,173.167 129.5,173.5C 123.254,185.66 116.754,197.66 110,209.5C 104.575,202.156 102.742,202.823 104.5,211.5 Z"/></g>
<g><path style="opacity:1" fill="#b6b6b4" d="M 210.5,194.5 C 209.586,203.94 204.586,210.44 195.5,214C 200.715,207.624 205.715,201.124 210.5,194.5 Z"/></g>
<g><path style="opacity:1" fill="#3f4140" d="M 178.5,214.5 C 156.993,214.831 135.66,214.497 114.5,213.5C 121.14,202.517 127.806,191.517 134.5,180.5C 135.408,181.79 135.241,183.123 134,184.5C 128.38,193.072 123.88,202.072 120.5,211.5C 122.833,211.5 125.167,211.5 127.5,211.5C 126.634,204.971 127.968,198.971 131.5,193.5C 132.495,199.128 132.829,204.794 132.5,210.5C 134.5,210.5 136.5,210.5 138.5,210.5C 138.168,201.475 138.502,192.475 139.5,183.5C 140.842,181.995 142.508,181.328 144.5,181.5C 144.5,191.167 144.5,200.833 144.5,210.5C 146.5,210.5 148.5,210.5 150.5,210.5C 150.168,200.81 150.502,191.144 151.5,181.5C 153.197,182.364 154.363,183.697 155,185.5C 155.5,193.827 155.666,202.16 155.5,210.5C 157.5,210.5 159.5,210.5 161.5,210.5C 161.17,204.132 161.504,197.798 162.5,191.5C 163.892,192.605 165.059,193.939 166,195.5C 166.499,200.489 166.666,205.489 166.5,210.5C 168.5,210.5 170.5,210.5 172.5,210.5C 171.726,207.619 170.393,204.952 168.5,202.5C 168.833,202.167 169.167,201.833 169.5,201.5C 172.915,205.576 175.915,209.909 178.5,214.5 Z"/></g>
<g><path style="opacity:1" fill="#b7b7b6" d="M 157.5,174.5 C 166.723,186.589 175.723,198.922 184.5,211.5C 186.474,209.076 187.641,206.409 188,203.5C 180.031,194.53 171.697,185.863 163,177.5C 162.333,176.833 162.333,176.167 163,175.5C 171.809,183.977 180.309,192.81 188.5,202C 190.903,202.63 192.737,201.797 194,199.5C 194.417,202.284 193.25,204.284 190.5,205.5C 189.695,207.915 188.695,210.249 187.5,212.5C 191.357,213.587 192.357,215.921 190.5,219.5C 185.321,221.172 182.821,219.172 183,213.5C 173.858,200.87 165.358,187.87 157.5,174.5 Z"/></g>
<g><path style="opacity:1" fill="#404241" d="M 104.5,211.5 C 110.136,209.803 112.136,211.803 110.5,217.5C 104.486,219.464 102.486,217.464 104.5,211.5 Z"/></g>
<g><path style="opacity:1" fill="#222423" d="M 114.5,213.5 C 135.66,214.497 156.993,214.831 178.5,214.5C 156.996,215.828 135.33,215.828 113.5,214.5C 113.624,213.893 113.957,213.56 114.5,213.5 Z"/></g>
<g><path style="opacity:1" fill="#7c7e7d" d="M 182.5,219.5 C 158.994,219.831 135.661,219.498 112.5,218.5C 123.995,217.833 135.662,217.5 147.5,217.5C 159.52,217.501 171.186,218.168 182.5,219.5 Z"/></g>
<g><path style="opacity:1" fill="#626463" d="M 112.5,218.5 C 135.661,219.498 158.994,219.831 182.5,219.5C 158.997,220.829 135.33,220.829 111.5,219.5C 111.624,218.893 111.957,218.56 112.5,218.5 Z"/></g>
<g><path style="opacity:1" fill="#424343" d="M 127.5,224.5 C 140.006,223.175 152.673,223.175 165.5,224.5C 160.004,228.997 154.004,232.664 147.5,235.5C 140.816,231.826 134.149,228.159 127.5,224.5 Z"/></g>
<g><path style="opacity:1" fill="#bab9b8" d="M 202.5,215.5 C 203.117,215.611 203.617,215.944 204,216.5C 205.825,221.472 207.158,226.472 208,231.5C 205.667,228.5 203.333,225.5 201,222.5C 198.404,226.39 194.904,229.223 190.5,231C 181.817,232.606 173.151,233.939 164.5,235C 170.534,232.417 176.867,230.751 183.5,230C 190.872,226.453 197.205,221.62 202.5,215.5 Z"/></g>
<g><path style="opacity:1" fill="#3f403f" d="M 92.5,215.5 C 96.5698,218.06 100.236,221.227 103.5,225C 106.5,226.667 109.5,228.333 112.5,230C 119.297,231.242 125.963,232.909 132.5,235C 121.371,234.811 110.704,232.478 100.5,228C 98.6667,226.167 96.8333,224.333 95,222.5C 92.7519,225.328 90.7519,228.328 89,231.5C 89.8336,226.158 91.0002,220.825 92.5,215.5 Z"/></g>
<g><path style="opacity:1" fill="#887f5a" d="M 43.5,236.5 C 50.1667,236.5 56.8333,236.5 63.5,236.5C 56.8333,237.167 50.1667,237.833 43.5,238.5C 42.1667,237.833 42.1667,237.167 43.5,236.5 Z"/></g>
<g><path style="opacity:1" fill="#d2c27e" d="M 257.5,232.5 C 259.646,232.696 259.812,233.696 258,235.5C 254.321,240.512 249.988,244.846 245,248.5C 236.42,246.397 227.92,244.064 219.5,241.5C 219.5,239.167 219.5,236.833 219.5,234.5C 232.337,234.137 245.004,233.47 257.5,232.5 Z"/></g>
<g><path style="opacity:1" fill="#d2c68d" d="M 79.5,243.5 C 82.1237,242.414 83.7904,240.414 84.5,237.5C 83,237.167 81.5,236.833 80,236.5C 69.2289,238.132 58.3956,238.799 47.5,238.5C 48.7786,242.302 51.1119,245.469 54.5,248C 61.5213,247.165 68.5213,245.998 75.5,244.5C 69.4027,246.947 63.0694,248.947 56.5,250.5C 51.5603,247.23 47.2269,243.23 43.5,238.5C 50.1667,237.833 56.8333,237.167 63.5,236.5C 71.4903,235.977 79.4903,235.644 87.5,235.5C 86.8333,237.833 86.1667,240.167 85.5,242.5C 83.5,242.833 81.5,243.167 79.5,243.5 Z"/></g>
<g><path style="opacity:1" fill="#dbc87f" d="M 79.5,243.5 C 78.4324,244.434 77.099,244.768 75.5,244.5C 68.5213,245.998 61.5213,247.165 54.5,248C 51.1119,245.469 48.7786,242.302 47.5,238.5C 58.3956,238.799 69.2289,238.132 80,236.5C 81.5,236.833 83,237.167 84.5,237.5C 83.7904,240.414 82.1237,242.414 79.5,243.5 Z"/></g>
</svg>
